<svg xmlns="http://www.w3.org/2000/svg" viewBox="0 0 30.67 30.67"><defs><style>.cls-1{fill:#e0742b;}</style></defs><g id="Capa_2" data-name="Capa 2"><g id="Capa_1-2" data-name="Capa 1"><path class="cls-1" d="M15.33,13a2.35,2.35,0,1,0,2.36,2.35A2.35,2.35,0,0,0,15.33,13Z"/><path class="cls-1" d="M27.59,14.22A12.33,12.33,0,0,0,16.45,3.08V0H14.22V3.08A12.32,12.32,0,0,0,3.08,14.22H0v2.23H3.08A12.33,12.33,0,0,0,14.22,27.59v3.08h2.23V27.59A12.34,12.34,0,0,0,27.59,16.45h3.08V14.22Zm-2.25,2.23a10.1,10.1,0,0,1-8.89,8.89v-4H14.22v4a10.08,10.08,0,0,1-8.89-8.89h4V14.22h-4a10.08,10.08,0,0,1,8.89-8.9v4h2.23v-4a10.1,10.1,0,0,1,8.89,8.9h-4v2.23Z"/></g></g></svg>