<svg xmlns="http://www.w3.org/2000/svg" viewBox="0 0 29.74 27.37"><defs><style>.cls-1{fill:#c0318a;}</style></defs><g id="Capa_2" data-name="Capa 2"><g id="Capa_1-2" data-name="Capa 1"><path class="cls-1" d="M5.21,0l9.06,6.2V27.37c-3.18-4.58-9.06-6.44-9.06-6.44Z"/><path class="cls-1" d="M6.17,26A11.07,11.07,0,0,0,0,25.25V4.45H.86V24.21S4.67,24.16,6.17,26Z"/><path class="cls-1" d="M9.74,25.36h0C8.36,23.39,4,21.87,4,21.87V2.34l-1.8-.7V22.89A25.83,25.83,0,0,1,5,23.38,17.06,17.06,0,0,1,9.74,25.36Z"/><path class="cls-1" d="M24.53,0,15.46,6.2V27.37c3.19-4.58,9.07-6.44,9.07-6.44Z"/><path class="cls-1" d="M23.56,26a11.09,11.09,0,0,1,6.18-.78V4.45h-.87V24.21S25.07,24.16,23.56,26Z"/><path class="cls-1" d="M20,25.36h0c1.38-2,5.72-3.49,5.72-3.49V2.34l1.81-.7V22.89a26.29,26.29,0,0,0-2.79.49A16.88,16.88,0,0,0,20,25.36Z"/></g></g></svg>