<svg xmlns="http://www.w3.org/2000/svg" viewBox="0 0 30.01 28.95"><defs><style>.cls-1{fill:#46b8a9;}</style></defs><g id="Capa_2" data-name="Capa 2"><g id="Capa_1-2" data-name="Capa 1"><path class="cls-1" d="M2.66,20.34a1.49,1.49,0,0,1-2.08-.27h0a1.57,1.57,0,0,1-.27-2.13l7.3-7.44a1.49,1.49,0,0,1,2.08.27h0A1.57,1.57,0,0,1,10,12.9Z"/><path class="cls-1" d="M13.24,0a7.24,7.24,0,1,0,7.24,7.23A7.23,7.23,0,0,0,13.24,0Zm0,11.59A4.36,4.36,0,1,1,17.6,7.23,4.36,4.36,0,0,1,13.24,11.59Z"/><rect class="cls-1" x="14.54" y="21.73" width="10.48" height="1.16"/><rect class="cls-1" x="14.54" y="18.42" width="10.48" height="1.15"/><rect class="cls-1" x="14.54" y="15.12" width="10.48" height="1.16"/><path class="cls-1" d="M16.19,3.86,16.1,4A4.35,4.35,0,1,1,10,10.17l-.61.62V29H30V3.86ZM27,26H12.39V11.78h5.32V6.83H27Z"/></g></g></svg>