<svg xmlns="http://www.w3.org/2000/svg" viewBox="0 0 23.67 30.92"><defs><style>.cls-1{fill:#3ba6de;}</style></defs><g id="Capa_2" data-name="Capa 2"><g id="Capa_1-2" data-name="Capa 1"><path class="cls-1" d="M.72,14.06A10.32,10.32,0,0,1,6.55.68,10.56,10.56,0,0,1,18.14,3.51L.81,14.28Z"/><path class="cls-1" d="M20.88,10.58l.15.52c.2.87.42,3.11.42,3.11l2.16,5.43a.88.88,0,0,1,.06.33.84.84,0,0,1-.84.83H21.45v2.89a4.07,4.07,0,0,1-4.07,4.07H15.76v3.16h-11V22.16A10.35,10.35,0,0,1,.81,14.28Z"/><path class="cls-1" d="M22.81,5.66a9.71,9.71,0,0,0-2.39.19,11.49,11.49,0,0,0-3.89,1.5L15.26,5.91l-1.63,4.87,5-1L17.55,8.5a10.48,10.48,0,0,1,3.16-1.16,8.92,8.92,0,0,1,2-.17l.6,0,.05-.6.07-.91Z"/></g></g></svg>