<svg xmlns="http://www.w3.org/2000/svg" viewBox="0 0 28.11 31.49"><defs><style>.cls-1{fill:#e2c42d;}</style></defs><g id="Capa_2" data-name="Capa 2"><g id="Capa_1-2" data-name="Capa 1"><path class="cls-1" d="M14.05,0a14.05,14.05,0,0,0-8.8,25L.34,31.49l13.71-3.38A14.06,14.06,0,1,0,14.05,0Zm0,23.33a9.27,9.27,0,0,1-9.27-9.27c0-.27,0-.54,0-.8H3.23l2.7-3.81,2.7,3.81H7.05a6.87,6.87,0,0,0,0,.8,7,7,0,0,0,12.07,4.83l1.32,1.86A9.19,9.19,0,0,1,14,23.33Zm8.17-4.79-2.7-3.81H21c0-.22,0-.45,0-.67A7,7,0,0,0,9.07,9.13L7.74,7.25A9.16,9.16,0,0,1,14,4.79a9.26,9.26,0,0,1,9.27,9.27c0,.22,0,.45,0,.67h1.64Z"/></g></g></svg>