<svg xmlns="http://www.w3.org/2000/svg" viewBox="0 0 28.71 29.68"><defs><style>.cls-1{fill:#8fc032;}</style></defs><g id="Capa_2" data-name="Capa 2"><g id="Capa_1-2" data-name="Capa 1"><path class="cls-1" d="M10.92,23.59a.76.76,0,0,1-.75.76H4.64a.76.76,0,0,1-.75-.76.75.75,0,0,1,.75-.75h5.53A.74.74,0,0,1,10.92,23.59Zm17.67-21-4.93,7.82V28.93a.75.75,0,0,1-.76.75H.75A.75.75,0,0,1,0,28.93v-24a.76.76,0,0,1,.75-.76H22.67L25.08.35a.75.75,0,0,1,1-.23l2.24,1.41a.75.75,0,0,1,.33.47A.72.72,0,0,1,28.59,2.57ZM22.15,12.79l-5.3,8.39,0,0,0,.06-.05.06,0,0-3.34,2.81a.74.74,0,0,1-.48.18.76.76,0,0,1-.74-1l1-3.78H4.64a.76.76,0,0,1,0-1.51h9.24l2-3.22H4.64a.76.76,0,0,1,0-1.51H16.86l2-3.22H4.64a.75.75,0,0,1-.75-.75.76.76,0,0,1,.75-.76h15.2l1.88-3H1.51v22.5H22.15V12.79ZM26.91,2.4l-1-.6L15,19.13l1,.61Z"/></g></g></svg>