<svg xmlns="http://www.w3.org/2000/svg" viewBox="0 0 29.12 29.12"><defs><style>.cls-1{fill:#e22e2e;}</style></defs><g id="Capa_2" data-name="Capa 2"><g id="Capa_1-2" data-name="Capa 1"><path class="cls-1" d="M28.9,3.7,25.42.22s-.87-.87-2.61.87S8,14.14,8,14.14l.68.68C11.61,12.08,22.32,2.34,22.83,1.89a.21.21,0,0,1,.29,0,.22.22,0,0,1,0,.29C23,2.3,12,12.33,9,15.11l6,6S26.29,8.05,28,6.31,28.9,3.7,28.9,3.7Z"/><path class="cls-1" d="M7.14,15S4.53,17.63,5.4,18.5l.33.33a18.06,18.06,0,0,1,2.08-3.15Z"/><path class="cls-1" d="M10.62,23.72c.87.87,3.48-1.74,3.48-1.74l-6-6A18.77,18.77,0,0,0,6,19.13Z"/><polygon class="cls-1" points="9.75 24.59 4.53 19.37 4.53 21.11 8.01 24.59 9.75 24.59"/><path class="cls-1" d="M2.9,27.89c.44-.38.76-.69.76-.69l3.48-1.74L3.66,22,1.92,25.46S-.69,28.07.18,28.94a.69.69,0,0,0,.63.16v0h16l-1.23-1.23Z"/></g></g></svg>