<svg xmlns="http://www.w3.org/2000/svg" viewBox="0 0 54.8 38.74"><defs><style>.cls-1{fill:#f9b233;}</style></defs><g id="Capa_2" data-name="Capa 2"><g id="Capa_1-2" data-name="Capa 1"><path class="cls-1" d="M10,0A7.14,7.14,0,1,1,2.85,7.14,7.14,7.14,0,0,1,10,0Z"/><path class="cls-1" d="M26.53,31.55a2.48,2.48,0,0,0,1.77-.74l9.2-9.19A2.5,2.5,0,0,0,34,18.09L26.55,25.4s-7.94-9-10-9H4.82C2.46,16.37,0,18.53,0,20.88V38.74H18.45V25.13l6,5.68A3.24,3.24,0,0,0,26.53,31.55Z"/><polygon class="cls-1" points="24.05 0.15 24.05 18.73 26.27 21.08 27.96 19.4 27.96 4.63 50.89 4.63 50.89 34.82 24.05 34.82 24.05 38.74 54.8 38.74 54.8 0.15 24.05 0.15"/></g></g></svg>