<svg xmlns="http://www.w3.org/2000/svg" viewBox="0 0 40.77 38.02"><defs><style>.cls-1{fill:#f9b233;}</style></defs><g id="Capa_2" data-name="Capa 2"><g id="Capa_1-2" data-name="Capa 1"><path class="cls-1" d="M5,0a3.64,3.64,0,0,1,3.6,3.69A3.64,3.64,0,0,1,5,7.37a3.64,3.64,0,0,1-3.6-3.68A3.64,3.64,0,0,1,5,0Z"/><path class="cls-1" d="M13.38,16.29a1.26,1.26,0,0,0,.89-.38l4.64-4.75a1.31,1.31,0,0,0,0-1.82,1.24,1.24,0,0,0-1.78,0l-3.75,3.77s-4-4.66-5-4.66H2.43A2.54,2.54,0,0,0,0,10.78V20H9.3V13l3,2.94A1.63,1.63,0,0,0,13.38,16.29Z"/><polygon class="cls-1" points="12.12 0.08 12.12 9.67 13.25 10.88 14.1 10.02 14.1 2.39 25.66 2.39 25.66 17.98 12.12 17.98 12.12 20 27.63 20 27.63 0.08 12.12 0.08"/><g id="Your_Icon" data-name="Your Icon"><path class="cls-1" d="M39,23.06a1.85,1.85,0,0,0-1.79,1.88H32.23a3,3,0,0,0-.43-1.74l4.09-4.8a1.12,1.12,0,0,0,.48.1A1.43,1.43,0,0,0,37.66,17a1.31,1.31,0,1,0-2.58,0,1.69,1.69,0,0,0,.33,1l-4,4.63a2.51,2.51,0,0,0-1.53-.81V16.05A2,2,0,0,0,31.46,14a2,2,0,0,0-1.81-2.11A2,2,0,0,0,27.84,14a2,2,0,0,0,1.55,2.08V21.8a2.44,2.44,0,0,0-1.45.73l-3.86-4.48A1.64,1.64,0,0,0,24.47,17a1.3,1.3,0,1,0-2.58,0,1.42,1.42,0,0,0,1.29,1.51,1.14,1.14,0,0,0,.45-.1l4,4.67a3.08,3.08,0,0,0-.53,1.89H21.87a1.86,1.86,0,0,0-1.79-1.88,1.94,1.94,0,0,0-1.81,2.07,2,2,0,0,0,1.81,2.16,2,2,0,0,0,1.79-1.75h5.24a5,5,0,0,0,.66,1.4L24,31.24a1.16,1.16,0,0,0-.86-.41,1.51,1.51,0,1,0,1.29,1.48,1.69,1.69,0,0,0-.09-.56l3.83-4.46a2.37,2.37,0,0,0,1.18.49v6.06a2,2,0,0,0-1.55,2.08A2,2,0,0,0,29.65,38a2,2,0,0,0,1.81-2.1,2,2,0,0,0-1.56-2.08V27.78a2.33,2.33,0,0,0,1.31-.6l3.95,4.6a1.84,1.84,0,0,0-.08.53,1.3,1.3,0,1,0,1.29-1.5,1.19,1.19,0,0,0-.92.45l-3.86-4.41a4.6,4.6,0,0,0,.59-1.31h5A1.93,1.93,0,0,0,39,27.27a2,2,0,0,0,1.81-2.1A2,2,0,0,0,39,23.06Z"/></g></g></g></svg>