<svg xmlns="http://www.w3.org/2000/svg" viewBox="0 0 38.24 35.87"><defs><style>.cls-1{fill:#f9b233;}</style></defs><g id="Capa_2" data-name="Capa 2"><g id="Capa_1-2" data-name="Capa 1"><path id="path34990" class="cls-1" d="M31.48,0a2.29,2.29,0,0,0-2.14,2.42,2.31,2.31,0,0,0,2.14,2.45,2.31,2.31,0,0,0,2.15-2.45A2.29,2.29,0,0,0,31.48,0ZM29.8,5.32c-1.91.39-3.28.8-3.28,2v.28l0,.4a13.25,13.25,0,0,1,4.94,1.36,13.21,13.21,0,0,1,5-1.38l0-.38V7.33c0-1.21-1.37-1.62-3.28-2a2.33,2.33,0,0,1-3.37,0ZM26,8.83l-.27,0V15.3a17.22,17.22,0,0,1,5.48,1.43V10.22a13.8,13.8,0,0,0-5.12-1.39H26Zm10.46.05a14.92,14.92,0,0,0-4.76,1.34v6.51A17.23,17.23,0,0,1,37.2,15.3V8.88A5.61,5.61,0,0,0,36.49,8.88Z"/><path class="cls-1" d="M15.59,27c.78-5.9-2.34-8.39-5.83-8.39S3.05,21.07,3.91,27a2.87,2.87,0,0,0-.82,2.15A3.18,3.18,0,0,0,5,31.77a5.8,5.8,0,0,0,4.74,4.1,5.78,5.78,0,0,0,4.72-4.08,3.09,3.09,0,0,0,1.94-2.67A2.91,2.91,0,0,0,15.59,27ZM9.76,30.77a.88.88,0,1,1,.8-.88A.84.84,0,0,1,9.76,30.77Zm.61-2.84H9.1c0-1.9,1.52-2.06,1.52-3a.86.86,0,0,0-.84-1c-.6,0-1,.26-1,1.34H7.33a2.46,2.46,0,0,1,2.44-2.7,2.18,2.18,0,0,1,2.44,2.18C12.21,26.63,10.37,26.37,10.37,27.93Z"/><g id="Your_Icon" data-name="Your Icon"><path class="cls-1" d="M37.11,26.21a1.08,1.08,0,0,0-1.11,1H32.93a1.45,1.45,0,0,0-.27-.95l2.54-2.61a.73.73,0,0,0,.3,0,.82.82,0,0,0,0-1.64.81.81,0,0,0-.59,1.36L32.42,26a1.57,1.57,0,0,0-.94-.45V22.39a1.13,1.13,0,1,0-.32,0v3.13a1.58,1.58,0,0,0-.9.4l-2.4-2.44a.83.83,0,0,0,.24-.59.81.81,0,1,0-.8.82.92.92,0,0,0,.28-.05L30,26.2a1.51,1.51,0,0,0-.33,1H26.48a1.09,1.09,0,0,0-1.12-1,1.11,1.11,0,0,0-1.12,1.13,1.16,1.16,0,0,0,1.12,1.17,1.17,1.17,0,0,0,1.12-1h3.26a2.49,2.49,0,0,0,.41.76l-2.32,2.34a.79.79,0,0,0-.53-.22.81.81,0,0,0-.81.81A.81.81,0,1,0,28,30.94l2.39-2.43a1.54,1.54,0,0,0,.73.27v3.3a1.12,1.12,0,1,0,.32,0v-3.3a1.57,1.57,0,0,0,.81-.33L34.75,31a.93.93,0,0,0,0,.29.8.8,0,1,0,.8-.82.77.77,0,0,0-.57.24l-2.4-2.4a2.16,2.16,0,0,0,.36-.71H36a1.13,1.13,0,1,0,1.11-1.35Z"/></g><path class="cls-1" d="M3.56.82A2.67,2.67,0,0,1,6.11,3.6,2.67,2.67,0,0,1,3.56,6.38,2.67,2.67,0,0,1,1,3.6,2.67,2.67,0,0,1,3.56.82Z"/><path class="cls-1" d="M9.46,13.11a.84.84,0,0,0,.63-.28l3.28-3.59a1,1,0,0,0,0-1.37.84.84,0,0,0-1.26,0L9.47,10.72S6.64,7.2,5.91,7.2H1.72A1.86,1.86,0,0,0,0,9v7H6.58V10.61l2.14,2.22A1.1,1.1,0,0,0,9.46,13.11Z"/><polygon class="cls-1" points="8.57 0.88 8.57 8.12 9.37 9.03 9.97 8.38 9.97 2.62 18.14 2.62 18.14 14.39 8.57 14.39 8.57 15.92 19.54 15.92 19.54 0.88 8.57 0.88"/></g></g></svg>