<svg xmlns="http://www.w3.org/2000/svg" viewBox="0 0 44.62 44.62"><defs><style>.cls-1{fill:#f9b233;}</style></defs><g id="Capa_2" data-name="Capa 2"><g id="Capa_1-2" data-name="Capa 1"><g id="Your_Icon" data-name="Your Icon"><path class="cls-1" d="M41,19.11a3.44,3.44,0,0,0-3.55,3.2H27.7a4.42,4.42,0,0,0-.87-3L35,11.16a2.47,2.47,0,0,0,.95.16,2.58,2.58,0,1,0-2.56-2.6A2.49,2.49,0,0,0,34,10.43L26.1,18.34a5.17,5.17,0,0,0-3-1.39V7.14a3.59,3.59,0,1,0-1,0V17a5.14,5.14,0,0,0-2.86,1.25l-7.65-7.65a2.57,2.57,0,1,0-1.79.73,2.43,2.43,0,0,0,.89-.17l7.85,8a4.68,4.68,0,0,0-1,3.22H7.14a3.44,3.44,0,0,0-3.55-3.2A3.53,3.53,0,0,0,0,22.63a3.67,3.67,0,0,0,3.59,3.69,3.69,3.69,0,0,0,3.55-3h10.4a7.82,7.82,0,0,0,1.31,2.37L11.46,33a2.59,2.59,0,0,0-1.71-.7,2.56,2.56,0,1,0,2.56,2.54,2.48,2.48,0,0,0-.19-1l7.6-7.61a5.12,5.12,0,0,0,2.33.84V37.48a3.6,3.6,0,1,0,1,0V27.16a5.23,5.23,0,0,0,2.59-1L33.51,34a2.44,2.44,0,0,0-.17.9,2.58,2.58,0,1,0,.73-1.79l-7.65-7.53a7.27,7.27,0,0,0,1.17-2.22h9.89A3.66,3.66,0,0,0,41,26.29a3.59,3.59,0,0,0,0-7.18Z"/></g></g></g></svg>