<svg xmlns="http://www.w3.org/2000/svg" viewBox="0 0 33.35 39.42"><defs><style>.cls-1{fill:#f9b233;}</style></defs><g id="Capa_2" data-name="Capa 2"><g id="Capa_1-2" data-name="Capa 1"><path class="cls-1" d="M31.27,19.14C33.23,5.69,25.43,0,16.68,0S-.12,5.64,2.05,19.11A6.23,6.23,0,0,0,0,24c0,2.84,2.72,5.27,4.82,6,2,6.56,9.16,9.36,11.86,9.36s9.84-2.79,11.83-9.3c2.35-.75,4.84-3.4,4.84-6.11A6.33,6.33,0,0,0,31.27,19.14ZM16.68,27.77a2,2,0,1,1,2-2A2,2,0,0,1,16.68,27.77Zm1.54-6.48H15c0-4.33,3.79-4.69,3.79-6.93a2,2,0,0,0-2.09-2.21c-1.51,0-2.52.58-2.52,3.06H10.61a5.87,5.87,0,0,1,6.11-6.16c3.65,0,6.09,1.94,6.09,5C22.81,18.33,18.22,17.74,18.22,21.29Z"/></g></g></svg>