<svg xmlns="http://www.w3.org/2000/svg" viewBox="0 0 37.25 39.4"><defs><style>.cls-1{fill:#f9b233;}</style></defs><g id="Capa_2" data-name="Capa 2"><g id="Capa_1-2" data-name="Capa 1"><path id="path34990" class="cls-1" d="M26,11a4.13,4.13,0,1,0,4.21,4.12A4.16,4.16,0,0,0,26,11Zm-3.3,9c-3.74.65-6.42,1.35-6.42,3.4v.48l0,.68c3.29,0,6.72,1.22,9.69,2.31,3-1.1,6.47-2.37,9.78-2.34l0-.65,0-.48c0-2-2.68-2.74-6.42-3.4a5.1,5.1,0,0,1-6.6,0ZM15.36,26c-.18,0-.35,0-.52,0V37A37.63,37.63,0,0,1,25.56,39.4v-11c-3.22-1.17-6.74-2.39-10-2.37h-.18Zm20.49.09a32.35,32.35,0,0,0-9.32,2.28v11A37.63,37.63,0,0,1,37.25,37V26.08A13.08,13.08,0,0,0,35.85,26.08Z"/><path class="cls-1" d="M19.06,11.41C20.25,3.39,15.5,0,10.16,0S-.07,3.36,1.25,11.38A3.71,3.71,0,0,0,0,14.31c0,1.69,1.66,3.14,2.94,3.6,1.2,3.91,5.58,5.57,7.22,5.57s6-1.65,7.22-5.54a4.29,4.29,0,0,0,2.95-3.63A3.72,3.72,0,0,0,19.06,11.41Zm-8.9,5.14a1.2,1.2,0,1,1,1.22-1.19A1.2,1.2,0,0,1,10.16,16.55Zm.94-3.86H9.17c0-2.59,2.3-2.8,2.3-4.14A1.22,1.22,0,0,0,10.2,7.24c-.92,0-1.53.34-1.53,1.82H6.47a3.54,3.54,0,0,1,3.72-3.67c2.23,0,3.71,1.16,3.71,3C13.9,10.92,11.1,10.57,11.1,12.69Z"/></g></g></svg>