<svg xmlns="http://www.w3.org/2000/svg" viewBox="0 0 36.76 47.64"><defs><style>.cls-1{fill:#f9b233;}</style></defs><g id="Capa_2" data-name="Capa 2"><g id="Capa_1-2" data-name="Capa 1"><path id="path34990" class="cls-1" d="M18.38,0a6.93,6.93,0,1,0,6.91,6.91A6.9,6.9,0,0,0,18.38,0ZM13,15.15c-6.14,1.1-10.53,2.27-10.53,5.71v.8l0,1.14c5.39,0,11,2.05,15.9,3.88,4.94-1.85,10.61-4,16-3.93l0-1.09-.05-.8c0-3.43-4.4-4.61-10.54-5.71a8.21,8.21,0,0,1-10.83,0ZM.84,25.14c-.29,0-.56,0-.84.05V43.57c5.07.26,10.27,1.46,17.58,4.07V29.11c-5.27-2-11-4-16.44-4H.84Zm33.63.15c-5,.21-10.39,2-15.3,3.82V47.64c7.32-2.61,12.52-3.82,17.59-4.07V25.29A19.44,19.44,0,0,0,34.47,25.29Z"/></g></g></svg>