<svg xmlns="http://www.w3.org/2000/svg" viewBox="0 0 26.45 24.41"><defs><style>.cls-1{fill:#e0742b;}</style></defs><g id="Capa_2" data-name="Capa 2"><g id="Capa_1-2" data-name="Capa 1"><path class="cls-1" d="M14.5,0h-.08a1.21,1.21,0,0,0-1.19,1.27c0,.7.27,1.26,1.33,1.27h0A9.73,9.73,0,0,1,24,12.18a9.73,9.73,0,0,1-9.67,9.69A9.61,9.61,0,0,1,4.66,13H6.9L3.45,7.28,0,13H2.12A12.18,12.18,0,1,0,14.5,0Z"/><path class="cls-1" d="M15.62,5.94a1.11,1.11,0,0,0-1.08-1.12h-.23a1.1,1.1,0,0,0-1.07,1.12v6.4L10.1,15.46a1.21,1.21,0,0,0,0,1.68,1.17,1.17,0,0,0,1.67,0l3.47-3.46.07-.09a1.09,1.09,0,0,0,.31-.76V5.94Z"/></g></g></svg>