<svg xmlns="http://www.w3.org/2000/svg" viewBox="0 0 20.89 20.27"><defs><style>.cls-1{fill:#e0742b;}</style></defs><g id="Capa_2" data-name="Capa 2"><g id="Capa_1-2" data-name="Capa 1"><path class="cls-1" d="M0,4.65V.93A.93.93,0,0,1,.93,0H4.66V1.36H1.36V4.65ZM16.25,1.36h3.28v3.3h1.36V.94h0A.93.93,0,0,0,20,0H16.25ZM4.65,18.91H1.36v-3.3H0v3.72H0a.93.93,0,0,0,.93.93H4.65V18.91Zm14.88-3.29v3.29h-3.3v1.36H20a.93.93,0,0,0,.93-.93V15.62Zm1.24-5.48L15.61,14.8a7.88,7.88,0,0,1-10.33,0L.12,10.14,5.28,5.47a7.88,7.88,0,0,1,10.33,0ZM14.42,6.55a6.06,6.06,0,0,0-7.95,0,4.73,4.73,0,0,0,0,7.17,6.06,6.06,0,0,0,8,0A4.73,4.73,0,0,0,14.42,6.55Zm-.91,3.59a3.07,3.07,0,1,1-3.06-3.07A3.06,3.06,0,0,1,13.51,10.14ZM12.1,8.8a.78.78,0,0,0-.18-.5.34.34,0,0,1-.67-.11.36.36,0,0,1,.06-.2h0a.81.81,0,0,0,0,1.62A.82.82,0,0,0,12.1,8.8Z"/></g></g></svg>