<svg xmlns="http://www.w3.org/2000/svg" viewBox="0 0 31.03 24.13"><defs><style>.cls-1{fill:#e0742b;}</style></defs><g id="Capa_2" data-name="Capa 2"><g id="Capa_1-2" data-name="Capa 1"><path class="cls-1" d="M31,10.67v-.24l-.06,0-.31-.11h0l-1.2-.37-1.19.51-.24.07-7.81,3.61-1.36.65-1.67.72h0l-.11,0L16,15.2l-1.84-.51-.68-.24h0l-1.09-.3-.27-.07L12,14l-.14,0h0l-1.26-.34-5.46-1.5-.1,0-1.36-.41a0,0,0,0,0,0,0c-1.19-1-.92-2.93-.34-4.26L9.11,9.14h.07l1.26.37h0l.13,0L12,10l.17.07.41.1,1.43.41.2.07.1,0,.82.27.65.2.48.14h0l.41.1.21.07.13-.07.85-.41.14-.07.07,0,1.77-.78,2.73-1.23.2-.07L24,8.25,29,6l.14-.07,1.33-.58V5.28l.13-.07-.06-1L16.1,0,2.43,6.14a1.71,1.71,0,0,0-.44.4C.45,7.94.93,11,2,12.48l-.61.27a1.58,1.58,0,0,0-.44.41C-.88,14.9.22,19,1.75,19.77l14.62,4.36L30,18V18l0-.71V17l-.07,0-.31-.11h0l-1.23-.37L16.07,22.06h0L16,22,4,18.78l-1.36-.41,0,0c-1.23-1-1-2.93-.34-4.3l5.93,1.78,1.33.41L15.35,18h0l.58.17.13-.06,1.09-.48L23.09,15l5.08-2.28.14-.07L29.64,12v0L31,11.35ZM15.49,1.6l11,3.31-1.8.75L13.92,2.42ZM12.42,3l11,3.3L21.59,7,10.85,3.78Z"/></g></g></svg>