<svg xmlns="http://www.w3.org/2000/svg" viewBox="0 0 23.87 16.06"><defs><style>.cls-1{fill:#e0742b;}</style></defs><g id="Capa_2" data-name="Capa 2"><g id="Capa_1-2" data-name="Capa 1"><path class="cls-1" d="M22.27,7.79a.85.85,0,0,0,.74.43,1,1,0,0,0,.43-.12.85.85,0,0,0,.31-1.17l-2.1-3.68a.85.85,0,0,0-.76-.43h-1a1.49,1.49,0,0,0,.86-1.34,1.48,1.48,0,1,0-3,0,1.49,1.49,0,0,0,.86,1.34h-1a.82.82,0,0,0-.74.43L15.6,5.64,14.22,3.25a.87.87,0,0,0-.77-.43H12.5a1.49,1.49,0,0,0,.86-1.34,1.49,1.49,0,0,0-3,0,1.49,1.49,0,0,0,.86,1.34H10.3a.81.81,0,0,0-.74.43L8.17,5.64,6.79,3.25A.87.87,0,0,0,6,2.82h-1a1.47,1.47,0,0,0,.86-1.34,1.48,1.48,0,1,0-3,0,1.49,1.49,0,0,0,.86,1.34H2.87a.84.84,0,0,0-.75.43l-2,3.68A.85.85,0,0,0,.43,8.1a1,1,0,0,0,.43.12.8.8,0,0,0,.74-.43l1.15-2v2.6L.47,14.72A1,1,0,0,0,1.07,16a.83.83,0,0,0,.34.07,1,1,0,0,0,.93-.64l2-5.57a.25.25,0,0,1,.19-.12.31.31,0,0,1,.19.09l2,5.6a1,1,0,0,0,.93.64H8.79a1,1,0,0,0,.93-.64l2-5.57A.24.24,0,0,1,12,9.73a.34.34,0,0,1,.19.09l2,5.6a1,1,0,0,0,.93.64h1.17a1,1,0,0,0,.84-.64l2-5.57a.25.25,0,0,1,.19-.12.29.29,0,0,1,.19.09l2,5.6a1,1,0,0,0,.93.64.78.78,0,0,0,.33-.07,1,1,0,0,0,.6-1.27L21.13,8.46V5.83Zm-14,5.91L6.33,8.49V5.86l1.15,2A.81.81,0,0,0,8,8.27a.86.86,0,0,0,.22,0,.75.75,0,0,0,.21,0A.8.8,0,0,0,9,7.86l1.15-2V8.46h0Zm7.38,0L13.72,8.49V5.86l1.14,2a.8.8,0,0,0,.53.41.75.75,0,0,0,.21,0,.78.78,0,0,0,.22,0,.8.8,0,0,0,.53-.41l1.14-2V8.46h0Z"/></g></g></svg>