<svg xmlns="http://www.w3.org/2000/svg" viewBox="0 0 20.07 17.89"><defs><style>.cls-1{fill:#e0742b;}</style></defs><g id="Capa_2" data-name="Capa 2"><g id="Capa_1-2" data-name="Capa 1"><path class="cls-1" d="M18.57,11.52v6.37H15.78V13.47a.29.29,0,0,0-.29-.29.28.28,0,0,0-.28.29v4.42H5.72V11.6L.7,8.35A1.56,1.56,0,0,1,0,7.28,1.5,1.5,0,0,1,.37,6.06l4-4.59a1.53,1.53,0,0,1,2.32,2L3.84,6.72,6.75,8.6h8.89A2.93,2.93,0,0,1,18.57,11.52Z"/><path class="cls-1" d="M14.38,4.32A3.48,3.48,0,0,1,10.9,7.79,3.71,3.71,0,0,1,7.43,4.32a3.48,3.48,0,1,1,7,0Z"/><path class="cls-1" d="M17.49,0,15.07,3.55h1.77L15.15,6.67l4.92-4.23H17.49L20.07,0Z"/></g></g></svg>