<svg xmlns="http://www.w3.org/2000/svg" viewBox="0 0 20.05 25.95"><defs><style>.cls-1{fill:#e0742b;}</style></defs><g id="Capa_2" data-name="Capa 2"><g id="Capa_1-2" data-name="Capa 1"><rect class="cls-1" x="8.96" y="4.26" width="6.82" height="1.52"/><rect class="cls-1" x="8.96" y="9.56" width="6.82" height="1.52"/><rect class="cls-1" x="8.96" y="14.86" width="6.82" height="1.52"/><path class="cls-1" d="M4.41,7.29a.76.76,0,0,1-.33-.08L2.56,6.45a.76.76,0,0,1,.68-1.36l1,.48L6.08,3.05A.75.75,0,1,1,7.29,4L5,7A.75.75,0,0,1,4.41,7.29Z"/><path class="cls-1" d="M4.41,12.59a.76.76,0,0,1-.33-.08l-1.52-.76a.76.76,0,1,1,.68-1.35l1,.47L6.08,8.35a.76.76,0,0,1,1.21.91L5,12.29A.77.77,0,0,1,4.41,12.59Z"/><path class="cls-1" d="M5.87,16l.6-.6a.76.76,0,0,0-1.08-1.07l-.6.6-.6-.6a.75.75,0,0,0-1.07,0,.77.77,0,0,0,0,1.07l.6.6-.6.6a.77.77,0,0,0,0,1.07.76.76,0,0,0,1.07,0l.6-.6.6.6A.76.76,0,0,0,6.47,16.6Z"/><path class="cls-1" d="M20.05,26l-1.42-.25c-5-.92-5.73-4.49-5.75-4.65a.37.37,0,0,0-.36-.3H1.36A1.36,1.36,0,0,1,0,19.39v-18A1.36,1.36,0,0,1,1.36,0H18.53a1.36,1.36,0,0,1,1.36,1.36v18a1.36,1.36,0,0,1-1.36,1.36h-.86a.36.36,0,0,0-.36.36,6.18,6.18,0,0,0,1.79,3.76ZM1.36,1A.36.36,0,0,0,1,1.36v18a.36.36,0,0,0,.36.36H12.52a1.35,1.35,0,0,1,1.34,1.14c0,.1.47,2.39,3.57,3.47a6,6,0,0,1-1.12-3.25,1.36,1.36,0,0,1,1.36-1.36h.86a.36.36,0,0,0,.36-.36v-18A.36.36,0,0,0,18.53,1Z"/></g></g></svg>