<svg xmlns="http://www.w3.org/2000/svg" viewBox="0 0 22.38 25.39"><defs><style>.cls-1{fill:#e0742b;}</style></defs><g id="Capa_2" data-name="Capa 2"><g id="Capa_1-2" data-name="Capa 1"><path class="cls-1" d="M20.46,7.33A10.44,10.44,0,0,0,17.2,2.49,10.17,10.17,0,0,0,10.53,0a10.93,10.93,0,0,0-7.3,3A9.67,9.67,0,0,0,0,9.91a11.8,11.8,0,0,0,2.13,6.66A12.93,12.93,0,0,0,4,18.74V23a.77.77,0,0,0,.64.76l9.09,1.57.13,0a.8.8,0,0,0,.49-.18.76.76,0,0,0,.28-.59V20.77l4.53-.27a.77.77,0,0,0,.72-.77l0-5h1.8a.77.77,0,0,0,.61-.31.76.76,0,0,0,.12-.68S21.29,10.18,20.46,7.33ZM10.59,18.22a1.52,1.52,0,0,1-1,.39,1.56,1.56,0,0,1-1.06-.39,1.36,1.36,0,0,1-.45-1.09,1.4,1.4,0,0,1,.44-1.05,1.49,1.49,0,0,1,1.07-.42,1.46,1.46,0,0,1,1,.42,1.55,1.55,0,0,1,0,2.14Zm3.69-9.17a4.61,4.61,0,0,1-.81,1.1c-.31.3-.88.82-1.69,1.55a6.83,6.83,0,0,0-.54.54,2.38,2.38,0,0,0-.3.42,3.12,3.12,0,0,0-.15.39c0,.12-.09.35-.16.67a1.1,1.1,0,0,1-1.18,1,1.24,1.24,0,0,1-.87-.33,1.35,1.35,0,0,1-.35-1,3.55,3.55,0,0,1,.94-2.51c.29-.31.67-.67,1.15-1.09s.73-.65.91-.84a2.92,2.92,0,0,0,.48-.63,1.49,1.49,0,0,0,.19-.75,1.74,1.74,0,0,0-.59-1.34,2.14,2.14,0,0,0-1.52-.54,2.1,2.1,0,0,0-1.6.55,4.39,4.39,0,0,0-.87,1.61C7.1,8.63,6.67,9,6,9a1.26,1.26,0,0,1-.93-.4,1.2,1.2,0,0,1-.38-.84,3.62,3.62,0,0,1,.6-1.91,4.73,4.73,0,0,1,1.76-1.6,5.61,5.61,0,0,1,2.7-.63,5.82,5.82,0,0,1,2.54.53A4.09,4.09,0,0,1,14,5.6a3.61,3.61,0,0,1,.59,2A3,3,0,0,1,14.28,9.05Z"/></g></g></svg>