<svg xmlns="http://www.w3.org/2000/svg" viewBox="0 0 23.22 26.9"><defs><style>.cls-1{fill:#e0742b;}</style></defs><g id="Capa_2" data-name="Capa 2"><g id="Capa_1-2" data-name="Capa 1"><polygon class="cls-1" points="13.7 4.86 8.82 4.86 8.82 3.8 13.7 3.8 13.7 4.86"/><polygon class="cls-1" points="13.7 7.65 8.82 7.65 8.82 6.58 13.7 6.58 13.7 7.65"/><path class="cls-1" d="M5.69,0V7.67H5.54A1,1,0,0,0,4.48,8.73a.77.77,0,0,0,0,.15v4.63H3.85V10.4a3,3,0,0,0-1.56,2.71v1.6H1.78V12.84A3.07,3.07,0,0,0,0,15.62V26.9H6.77v-3s.57-.54,1.21-1.28H23.22V0Zm16.5,21.61H8.79a4.07,4.07,0,0,0,.92-2.09v-.74H20.09V17.71H9.71V16H20.09V14.92H9.71V13.21H20.09V12.14H9.71v-.53A1.21,1.21,0,0,0,9,10.43H13.7V9.36H8.82v1a1.15,1.15,0,0,0-1.44,1.24v4.57c0,.24-.61.25-.66,0V1H22.19V21.61Z"/><rect class="cls-1" x="14.96" y="3.8" width="5.13" height="6.63"/></g></g></svg>