<svg xmlns="http://www.w3.org/2000/svg" viewBox="0 0 21.39 22.22"><defs><style>.cls-1{fill:#e0742b;}</style></defs><g id="Capa_2" data-name="Capa 2"><g id="Capa_1-2" data-name="Capa 1"><path class="cls-1" d="M20.18,1.58,10.06,0,9.84,0A1.43,1.43,0,0,0,8.43,1.21L8.21,2.62l1-.25.16-1A.48.48,0,0,1,9.84,1h.07L20,2.52a.48.48,0,0,1,.39.55L18.18,17.65a.48.48,0,0,1-.54.4l-.77-.12a2.22,2.22,0,0,1,0,1l.62.1.22,0a1.45,1.45,0,0,0,1.42-1.22L21.38,3.21A1.43,1.43,0,0,0,20.18,1.58Z"/><path class="cls-1" d="M12.63,3.74a1.43,1.43,0,0,0-1.39-1.09,1.27,1.27,0,0,0-.34,0L1,5.14a1.69,1.69,0,0,0-.27.1A1.43,1.43,0,0,0,0,6.8L3.58,21.13A1.42,1.42,0,0,0,5,22.22a1.32,1.32,0,0,0,.34,0l9.94-2.45a1.17,1.17,0,0,0,.24-.09,1.49,1.49,0,0,0,.51-.49,1.37,1.37,0,0,0,.16-1.08Zm2.69,14.84-.05.07a.5.5,0,0,1-.25.15L5.08,21.25H5a.48.48,0,0,1-.47-.36L1,6.58A.47.47,0,0,1,1.32,6L7.94,4.37l1-.25,2.32-.57.11,0a.48.48,0,0,1,.47.37l.72,2.91L12.85,8l.13.53L14.07,13l1.17,4.72.13.54A.5.5,0,0,1,15.32,18.58Z"/><path class="cls-1" d="M6.37,11.26,5.62,8.52c-.13-.44-.31-.61-.69-.5l-.46.12c-.43.12-.6.32-.52.6s.32.36.72.26l.09,0,.7,2.54c.12.43.32.61.63.52S6.49,11.69,6.37,11.26Z"/><path class="cls-1" d="M11.52,15.74l-.84.23c.63-1.1,1-1.81.81-2.45a1.22,1.22,0,0,0-1.6-.83,1.37,1.37,0,0,0-1,1.62.45.45,0,0,0,.58.34c.47-.13.16-1,.63-1.12a.38.38,0,0,1,.45.3c.08.31-.16.86-.61,1.74-.31.62-.51,1-.45,1.18,0,0,0,0,0,0,.09.25.3.33.65.23l.31-.08,1.3-.36c.43-.12.61-.31.53-.6S12,15.62,11.52,15.74Z"/><path class="cls-1" d="M10.21,8.61a.24.24,0,0,0-.32.09l-2.27,4L6.29,15l-.22.39a.25.25,0,0,0,.09.33h0l.1,0a.25.25,0,0,0,.21-.12L7.41,14,10.3,8.94A.24.24,0,0,0,10.21,8.61Z"/></g></g></svg>