<svg xmlns="http://www.w3.org/2000/svg" viewBox="0 0 27.55 23.71"><defs><style>.cls-1{fill:#e0742b;}</style></defs><g id="Capa_2" data-name="Capa 2"><g id="Capa_1-2" data-name="Capa 1"><path class="cls-1" d="M27.35,4.48,25.17,2.3a.56.56,0,0,0-.79,0l-7.76,7.8H10.93L3.17,2.34a.57.57,0,0,0-.79,0L.2,4.49a.56.56,0,0,0-.07.78l7.59,7.65V23.21c0,.3.38.5.69.5H19c.3,0,.67-.2.67-.5V13l7.7-7.76a.53.53,0,0,0,.14-.4A.57.57,0,0,0,27.35,4.48Z"/><path class="cls-1" d="M13.73,8.63A4.32,4.32,0,1,0,9.42,4.31,4.33,4.33,0,0,0,13.73,8.63Z"/></g></g></svg>