<svg xmlns="http://www.w3.org/2000/svg" viewBox="0 0 25.33 19.57"><defs><style>.cls-1{fill:#e0742b;}</style></defs><g id="Capa_2" data-name="Capa 2"><g id="Capa_1-2" data-name="Capa 1"><path class="cls-1" d="M18.1,11.18a.55.55,0,0,0-.55.54.5.5,0,0,0,.06.24h0a5.54,5.54,0,0,1,0,4.73h0a.46.46,0,0,0-.06.23.55.55,0,0,0,1.06.18,6.66,6.66,0,0,0,0-5.57A.54.54,0,0,0,18.1,11.18Z"/><path class="cls-1" d="M20.89,10.14a.55.55,0,0,0-.55.55.6.6,0,0,0,.06.23h0a8.25,8.25,0,0,1,.79,3.41,8.2,8.2,0,0,1-.79,3.4h0a.65.65,0,0,0-.06.24.55.55,0,0,0,.55.54.52.52,0,0,0,.5-.34,9.17,9.17,0,0,0,.89-3.84,9.1,9.1,0,0,0-.89-3.84A.53.53,0,0,0,20.89,10.14Z"/><path class="cls-1" d="M24.25,9.44l0,0h0a.54.54,0,0,0-1,.24.51.51,0,0,0,.05.22h0a10.51,10.51,0,0,1,0,9h0a.54.54,0,0,0,1,.46h0s0,0,0,0a11.61,11.61,0,0,0,0-9.78Z"/><path class="cls-1" d="M16.4,11.46,14.85,7.55s-.16-1.62-.31-2.23A7.52,7.52,0,0,0,7.42,0,7.42,7.42,0,0,0,2.84,13.26v6.31h7.92V17.29h1.16a2.93,2.93,0,0,0,2.93-2.92V12.29h1a.6.6,0,0,0,.6-.6A.45.45,0,0,0,16.4,11.46ZM12.27,9.22a1,1,0,1,1,0-2,1,1,0,0,1,0,2Z"/></g></g></svg>