<svg xmlns="http://www.w3.org/2000/svg" viewBox="0 0 109.27 109.27"><defs><style>.cls-1{fill:#e22e2e;}</style></defs><g id="Capa_2" data-name="Capa 2"><g id="Capa_1-2" data-name="Capa 1"><path class="cls-1" d="M54.63,109.27a54.64,54.64,0,1,1,54.64-54.64A54.7,54.7,0,0,1,54.63,109.27ZM54.63.76a53.88,53.88,0,1,0,53.88,53.87A53.94,53.94,0,0,0,54.63.76Z"/><path class="cls-1" d="M54.63,3.76a50.88,50.88,0,1,0,50.88,50.87A50.88,50.88,0,0,0,54.63,3.76ZM51.75,15.32a.43.43,0,0,1,.58,0,.45.45,0,0,1,.13.57c-4.88,9.32,0,16,5.26,23,7,9.4,14.85,20-1.61,38.61a.49.49,0,0,1-.34.15.53.53,0,0,1-.2,0,.45.45,0,0,1-.24-.49C57,68.76,52.13,63,47,56.87,38.59,47,29.93,36.71,51.75,15.32ZM45.4,90.12h0a.37.37,0,0,1-.26-.1l-1.11-1c-4.93-4.32-18-15.77-18.95-30.12-.47-7.45,2.38-14.72,8.48-21.58a.4.4,0,0,1,.5-.09.42.42,0,0,1,.18.48C31.8,45,36.56,50.91,41.6,57.19,48.46,65.74,56.23,75.43,45.68,90A.4.4,0,0,1,45.4,90.12ZM81,74c-4,10.41-16,18.26-28,18.26h0a24.92,24.92,0,0,1-5.66-.63.4.4,0,0,1-.29-.27A.42.42,0,0,1,47.2,91c2.09-2.3,4.23-4.52,6.29-6.66C65.59,71.76,76,60.92,68.14,41.61a.4.4,0,0,1,.64-.45C80.71,51.74,85.06,63.4,81,74Z"/></g></g></svg>