<svg xmlns="http://www.w3.org/2000/svg" viewBox="0 0 109.27 109.27"><defs><style>.cls-1{fill:#e0742b;}</style></defs><g id="Capa_2" data-name="Capa 2"><g id="Capa_1-2" data-name="Capa 1"><path class="cls-1" d="M54.63,109.27a54.64,54.64,0,1,1,54.64-54.64A54.7,54.7,0,0,1,54.63,109.27ZM54.63.76a53.88,53.88,0,1,0,53.88,53.87A53.93,53.93,0,0,0,54.63.76Z"/><path class="cls-1" d="M58,37.53l2.76,4.53a3.14,3.14,0,0,0,2.6,1.55l4.3.22c-.07.89-.14,1.75-.24,2.61a3.83,3.83,0,0,0,1.53,3.63c1.21.94,2.4,1.92,3.56,2.87q-1.71,2-3.43,4a3.17,3.17,0,0,0-.68,3c.28,1,.55,2,.82,3-1.3.31-2.59.63-3.89.92a3.11,3.11,0,0,0-2.26,2q-.95,2.49-1.91,5l-.06.13-3.67-1.53a3,3,0,0,0-1.22-.25,3.29,3.29,0,0,0-1.78.53l-3.08,2c-.91-1.5-1.83-3-2.73-4.51a3.16,3.16,0,0,0-2.66-1.58l-4.26-.23c.08-1,.16-2,.26-3.05a3.22,3.22,0,0,0-1.25-2.92q-2-1.56-3.88-3.14,1.74-2,3.49-4.06a3,3,0,0,0,.65-2.88c-.28-1-.56-2.08-.83-3.12l.79-.19c1-.24,2-.49,3-.72a3.12,3.12,0,0,0,2.31-2q1-2.53,2-5.07L51.9,39.8a3.13,3.13,0,0,0,1.25.27,3,3,0,0,0,1.69-.53l3.12-2m.63-2.8-1.31.85c-1.18.76-2.36,1.52-3.53,2.29a1.08,1.08,0,0,1-.6.2,1.23,1.23,0,0,1-.47-.11L48,36l-.94-.4-.41,1.07c-.77,2-1.53,4-2.28,5.93a1.14,1.14,0,0,1-.89.78c-1,.23-2.06.48-3.08.73l-2.78.67L38,46.15c.33,1.25.66,2.51,1,3.76a1,1,0,0,1-.23,1l-4.09,4.76-.74.86,1.11.91C36.5,58.66,38,59.84,39.42,61a1.23,1.23,0,0,1,.51,1.18c-.1,1.1-.19,2.21-.28,3.31l-.14,1.8.77,0,5.54.31a1.16,1.16,0,0,1,1,.61q1.5,2.48,3,4.94l.81,1.33.9-.59c1.32-.85,2.61-1.68,3.9-2.53a1.35,1.35,0,0,1,.69-.2,1.09,1.09,0,0,1,.45.09l4.48,1.87,1.09.46.55-1.43c.72-1.87,1.45-3.73,2.16-5.6a1.11,1.11,0,0,1,.84-.74l4-1,1.87-.45-.29-1.08c-.35-1.32-.7-2.64-1.06-4a1.16,1.16,0,0,1,.26-1.18l3.76-4.38,1-1.18-1.39-1.14c-1.25-1-2.51-2.06-3.79-3a1.88,1.88,0,0,1-.77-1.84c.14-1.23.23-2.45.32-3.7l.08-1-1.22-.07c-1.71-.09-3.42-.19-5.13-.27a1.14,1.14,0,0,1-1-.58c-1-1.7-2.06-3.38-3.09-5.07l-.75-1.23Z"/><path class="cls-1" d="M54.63,3.76a50.88,50.88,0,1,0,50.88,50.87A50.88,50.88,0,0,0,54.63,3.76ZM81.17,85.63l-16.85-7-6,15.63L49.47,79.83,33.9,89.89l1.52-19-17.88-1,11-12.84L15.24,46.25,33,42,28.11,23.63l16.84,7L51,15,59.8,29.45,75.38,19.38l-1.53,19,17.88,1-11,12.85L94,63,76.29,67.26Z"/><path class="cls-1" d="M82.82,52,94.65,38.19,75.36,37.13,77,16.57,60.17,27.45,50.69,11.93,44.21,28.71,26,21.14,31.3,41.05,12.14,45.62l14.3,11.64L14.62,71.06l19.3,1.06L32.27,92.71,49.1,81.83l9.47,15.5,6.49-16.79,18.2,7.56L78,68.22l19.15-4.57ZM75.08,40.72l.12-1.55L90.41,40,81.24,50.71l-4.33-3.52-1.74-1.42a1.1,1.1,0,0,1-.42-.86C74.85,43.53,75,42.14,75.08,40.72Zm-.43-20.2L73.33,37l-2.79-.15-4.2-.24a1.11,1.11,0,0,1-.84-.47c-1.13-1.83-2.25-3.67-3.39-5.54l-.87-1.43Zm-23.55-4,7.33,12-.55.39a2.64,2.64,0,0,1-.29.21l-1.27.82-3,1.93a1.29,1.29,0,0,1-1.27.13l-4-1.67-2-.83Zm-22,8.09,14.39,6-.85,2.29c-.69,1.79-1.38,3.59-2.08,5.37a1.23,1.23,0,0,1-.77.76q-2.43.61-4.89,1.18l-.82.2a1.24,1.24,0,0,1-.25,0h-.45l-.2-.43Zm-12.42,22L31.82,43l.92,3.44c.18.67.36,1.33.52,2a1.23,1.23,0,0,1-.21,1.05c-1.39,1.65-2.8,3.3-4.21,4.94l-.55.64a1.8,1.8,0,0,1-.2.18l-.36.29-.42-.24ZM34.24,68.06l-.16,2-15.23-.84L28,58.56l2.62,2.11L34,63.42a1.27,1.27,0,0,1,.5,1.17C34.42,65.74,34.33,66.89,34.24,68.06Zm.39,20.69L36,72.31h1.5c1.8.1,3.59.19,5.39.31a1.19,1.19,0,0,1,.92.49c1.05,1.69,2.09,3.39,3.15,5.12L48,80.08Zm23.52,4-7.33-12,1.89-1.25L56,77.36a1.4,1.4,0,0,1,.69-.22h.11l.19.06,4.59,1.89,1.59.66ZM65,75.13,63.9,77.82l-2.32-.93c-1.71-.71-3.42-1.42-5.12-2.15a.22.22,0,0,0-.23,0l-4.46,2.89-2,1.28-.41-.61-.18-.28-1-1.6q-1.73-2.82-3.44-5.65c-.07-.13-.09-.14-.27-.15l-6.34-.35-1.08-.06-.29,0-.66-.09L36.37,67c.1-1.26.2-2.53.32-3.8,0-.16,0-.22-.16-.35-1.67-1.34-3.34-2.7-5-4l-1.32-1.08L30,57.48,29.39,57,31,55.12c1.56-1.81,3.11-3.63,4.68-5.44l0-.15c-.39-1.43-.77-2.87-1.15-4.3l-.69-2.68,4.29-1c1.18-.29,2.36-.57,3.55-.84.11,0,.12,0,.19-.19.86-2.26,1.73-4.51,2.6-6.77L45,32.45c0-.12.09-.23.15-.36l.26-.64.67.24.33.13,1.16.48,5.33,2.23H53q2-1.32,4-2.62l2.46-1.57.4.61.18.27L61,32.7q1.77,2.89,3.53,5.79c.06.1.07.11.21.12,2,.09,3.91.2,5.87.31l1.5.08.33,0,.73.08L73,41.38c-.11,1.44-.21,2.85-.37,4.26a1,1,0,0,0,.45,1.08c1.47,1.15,2.91,2.33,4.35,3.51l2.46,2-.46.57-.22.27L78,54.51q-2.14,2.51-4.3,5c-.1.11-.11.14-.06.31.41,1.51.81,3,1.21,4.53l.61,2.36-3.25.79c-1.54.37-3.08.74-4.62,1.09-.1,0-.1,0-.15.14C66.62,70.86,65.79,73,65,75.13Zm15.27,9.51-14.36-6,.17-.6a2.29,2.29,0,0,1,.09-.28l.26-.67c.79-2,1.57-4.09,2.37-6.13a1.23,1.23,0,0,1,.75-.73l4.74-1.15L76,68.69Zm-2.77-18.4-.7-2.61c-.25-.94-.5-1.88-.74-2.82a1.28,1.28,0,0,1,.19-1.07c1.28-1.52,2.57-3,3.89-4.57l1.39-1.62,11.15,9.08Z"/></g></g></svg>