<svg xmlns="http://www.w3.org/2000/svg" viewBox="0 0 109.27 109.27"><defs><style>.cls-1{fill:#39378d;}</style></defs><g id="Capa_2" data-name="Capa 2"><g id="Capa_1-2" data-name="Capa 1"><path class="cls-1" d="M54.63,109.27a54.64,54.64,0,1,1,54.64-54.64A54.7,54.7,0,0,1,54.63,109.27ZM54.63.76a53.88,53.88,0,1,0,53.88,53.87A53.94,53.94,0,0,0,54.63.76Z"/><path class="cls-1" d="M54.63,3.76a50.88,50.88,0,1,0,50.88,50.87A50.88,50.88,0,0,0,54.63,3.76Zm37.8,37.78A4.23,4.23,0,1,1,87,39,4.24,4.24,0,0,1,92.43,41.54ZM83,64.65l0,.08a3,3,0,0,1-2.52,2,2.88,2.88,0,0,1-1.26-.17,3,3,0,0,1-1.8-3.78s0,0,0-.07a3,3,0,1,1,5.57,2Zm-11-.89-.08,0a2.46,2.46,0,0,1-1.48-3.13h0a2.45,2.45,0,0,1,4.6,1.66h0A2.44,2.44,0,0,1,72,63.76Zm-1.9,2.87a2.44,2.44,0,0,1,.06,3.45l-.06.07a2.47,2.47,0,0,1-3.46,0,2.46,2.46,0,0,1-.06-3.45l.06,0A2.45,2.45,0,0,1,70.14,66.63Zm.32-23.39a2.45,2.45,0,1,1-1,3.31A2.45,2.45,0,0,1,70.46,43.24Zm3.61,12.49a2.16,2.16,0,0,1-.92-.11,2.44,2.44,0,1,1,.92.11Zm.36-14.9a3,3,0,1,1,2.69,1.25A2.95,2.95,0,0,1,74.43,40.83Zm9,5.12a3,3,0,0,1-2,3.69,3,3,0,0,1-.6.12A3,3,0,1,1,83.42,46ZM82,58.21h-.34a3,3,0,1,1,3-2.9h0A3,3,0,0,1,82,58.21Zm-2-28.9a4.23,4.23,0,1,1-.68,5.94A4.23,4.23,0,0,1,80.08,29.31Zm-9.7-6.92A4.23,4.23,0,1,1,73,28.81a3.88,3.88,0,0,1-1.38-.58A4.23,4.23,0,0,1,70.38,22.39Zm-1.79,8.79a3,3,0,1,1,2.63,4.75,3,3,0,0,1-2.63-4.75Zm-.33,9.44a2.45,2.45,0,0,1-2.68.8,2.26,2.26,0,0,1-.76-.41,2.44,2.44,0,1,1,3.44-.39ZM63.83,72.08a2.45,2.45,0,0,1-1.4,3.17,2.5,2.5,0,0,1-1.64,0,2.45,2.45,0,0,1-.13-4.61A2.45,2.45,0,0,1,63.83,72.08ZM60.65,27.93a3,3,0,1,1,3.06,3.94,2.87,2.87,0,0,1-1.26-.16A3,3,0,0,1,60.65,27.93Zm.63,49.82a3,3,0,0,1,1.63,5.7,3.53,3.53,0,0,1-.55.1,3,3,0,0,1-1.08-5.8ZM59,18.94a4.22,4.22,0,0,1,5.13-3.07h0a4.24,4.24,0,0,1-2,8.24l-.12,0A4.23,4.23,0,0,1,59,18.94Zm-1,8.49a3,3,0,0,1-2.68,2.85H55a3,3,0,1,1,3-2.86Zm-6.83,10A2.41,2.41,0,0,1,50,37.37a2.43,2.43,0,1,1,1.13.09Zm2.38,34.37a2.45,2.45,0,0,1-.25,4.89,2.2,2.2,0,0,1-.63-.12,2.45,2.45,0,0,1,.88-4.77ZM51,14.75a4.23,4.23,0,0,1,.67,8.44,4.66,4.66,0,0,1-1.25-.1A4.22,4.22,0,0,1,51,14.75Zm-5.2,10.79a3,3,0,1,1,1.63,5.69,2.65,2.65,0,0,1-.55.1,3,3,0,0,1-1.08-5.79ZM27,50.72a3,3,0,0,1,.2,5.9,1.93,1.93,0,0,1-.34,0A3,3,0,1,1,27,50.72Zm-1.31-6.43a3,3,0,1,1,3.07,3.94,2.89,2.89,0,0,1-1.27-.15A3,3,0,0,1,25.72,44.29Zm1.53,15A3,3,0,0,1,29,65a3,3,0,0,1-.6.11,3,3,0,0,1-1.13-5.77Zm2.9,8.07a3,3,0,0,1,3.38,4.86,2.91,2.91,0,0,1-1.42.53,3,3,0,0,1-2-5.39Zm8.56-25.53a2.46,2.46,0,0,1,.77,3.38h0a2.44,2.44,0,0,1-2.82,1A2.5,2.5,0,0,1,36.1,46a2.45,2.45,0,1,1,2.61-4.14ZM37.2,29.53a3,3,0,1,1-.81,4.11A3,3,0,0,1,37.2,29.53ZM37,52a2.45,2.45,0,0,1-2.76,2.09,1.74,1.74,0,0,1-.43-.09A2.45,2.45,0,1,1,37,52ZM34.45,62.15a2.45,2.45,0,0,1,.08-4.68,2.45,2.45,0,1,1,1.35,4.7A2.32,2.32,0,0,1,34.45,62.15Zm3,3.05a2.45,2.45,0,1,1,.81,4.2,2.37,2.37,0,0,1-1.12-.75A2.45,2.45,0,0,1,37.49,65.2ZM41.1,39.38a2.44,2.44,0,1,1,1.28,1A2.5,2.5,0,0,1,41.1,39.38ZM43.3,71.1a2.44,2.44,0,1,1,1.44,3.42l-.35-.14A2.45,2.45,0,0,1,43.3,71.1ZM38.15,17.93A4.23,4.23,0,0,1,41.5,25.7a4.28,4.28,0,0,1-2.58.25,4.23,4.23,0,0,1-.77-8ZM35,39.62A3,3,0,1,1,30.27,36,3,3,0,0,1,35,39.62ZM27,25.08a4.22,4.22,0,1,1-.29,6A4.22,4.22,0,0,1,27,25.08ZM18.86,35.51a4.23,4.23,0,1,1,2.81,6.14,4.07,4.07,0,0,1-1.1-.41A4.22,4.22,0,0,1,18.86,35.51ZM14.58,48a4.23,4.23,0,1,1,3.49,4.85l-.23,0A4.23,4.23,0,0,1,14.58,48Zm.08,13.24a4.23,4.23,0,1,1,4.9,3.43,4.1,4.1,0,0,1-1.64,0A4.21,4.21,0,0,1,14.66,61.27ZM24.82,75.38a4.23,4.23,0,1,1,1.65-5.74A4.24,4.24,0,0,1,24.82,75.38Zm8.42,8.43a4.23,4.23,0,0,1-4.05,1.28,4.29,4.29,0,0,1-1.92-1,4.23,4.23,0,1,1,6-.28Zm2.15-9.64a3,3,0,0,1,4.7,3.59,2.93,2.93,0,0,1-4.14.56A3,3,0,0,1,35.39,74.17Zm8.54,14.9a4.24,4.24,0,0,1-4.8,2.44,3.29,3.29,0,0,1-.77-.25h0a4.23,4.23,0,1,1,5.57-2.2Zm.32-6.24a3,3,0,1,1,1.26.16A3.22,3.22,0,0,1,44.25,82.83Zm6.89,11.68a3.31,3.31,0,0,1-.55-.08,4.26,4.26,0,1,1,.55.08Zm2.76-9.92h-.37a2.95,2.95,0,1,1,.37,0Zm4.47-46.8-.13,0a2.6,2.6,0,1,1,.13,0ZM64.31,93.5h0a4,4,0,0,1-1.92,0,4.23,4.23,0,1,1,1.92,0Zm3.07-14.83A3,3,0,1,1,70.11,80,3,3,0,0,1,67.38,78.67Zm9.07,9.63h0a4.23,4.23,0,1,1,1.28-5.84A4.21,4.21,0,0,1,76.46,88.29Zm-.09-14.15A3,3,0,1,1,78.42,73,2.94,2.94,0,0,1,76.36,74.15Zm9.9,5.26A4.21,4.21,0,0,1,82,80.92a4.29,4.29,0,0,1-1.7-.8,4.23,4.23,0,1,1,5.93-.71Zm6.38-11.78s0,.06,0,.08,0,.05,0,.07a4.22,4.22,0,0,1-4.91,2.75,4.77,4.77,0,0,1-.47-.13A4.23,4.23,0,0,1,84.59,65h0a.45.45,0,0,1,0-.11,4.23,4.23,0,0,1,8,2.71Zm-2.09-8.79a4.33,4.33,0,0,1-1-.11,4.2,4.2,0,1,1,1,.11Z"/></g></g></svg>