<svg xmlns="http://www.w3.org/2000/svg" viewBox="0 0 109.27 109.27"><defs><style>.cls-1{fill:#8fc032;}</style></defs><g id="Capa_2" data-name="Capa 2"><g id="Capa_1-2" data-name="Capa 1"><path class="cls-1" d="M54.63,109.27a54.64,54.64,0,1,1,54.64-54.64A54.7,54.7,0,0,1,54.63,109.27ZM54.63.76a53.88,53.88,0,1,0,53.88,53.87A53.93,53.93,0,0,0,54.63.76Z"/><path class="cls-1" d="M54.63,3.76a50.88,50.88,0,1,0,50.88,50.87A50.88,50.88,0,0,0,54.63,3.76Zm38.22,35a33.13,33.13,0,0,1-8,14.66,25.27,25.27,0,0,0-12-6.36,25.35,25.35,0,0,0,4-13A32.74,32.74,0,0,1,92.85,38.8Zm-48.3,5.75A15.33,15.33,0,0,0,38,46.44a23.56,23.56,0,0,1-3.89-12.32A23.56,23.56,0,0,1,46.44,38,15.19,15.19,0,0,0,44.55,44.55ZM48,38.65a14,14,0,0,1,5.45,2.92A11.29,11.29,0,0,0,51.06,46a11.77,11.77,0,0,0-4.83-1.43A13.74,13.74,0,0,1,48,38.65ZM38.65,48a13.74,13.74,0,0,1,5.91-1.78A11.77,11.77,0,0,0,46,51.06a11.42,11.42,0,0,0-4.42,2.4A13.79,13.79,0,0,1,38.65,48ZM46,58.21A11.77,11.77,0,0,0,44.56,63a13.74,13.74,0,0,1-5.91-1.78,13.92,13.92,0,0,1,2.92-5.45A11.42,11.42,0,0,0,46,58.21Zm-5.62-3.58a15.42,15.42,0,0,0-3.28,5.95,23.34,23.34,0,0,1-11.47-5.95,23.5,23.5,0,0,1,11.47-6A15.15,15.15,0,0,0,40.37,54.63ZM38,62.83a15.33,15.33,0,0,0,6.54,1.89,15.29,15.29,0,0,0,1.89,6.53,23.57,23.57,0,0,1-12.32,3.9A23.56,23.56,0,0,1,38,62.83Zm8.22,1.87a11.53,11.53,0,0,0,4.82-1.42,11.44,11.44,0,0,0,2.41,4.42A13.72,13.72,0,0,1,48,70.62,13.78,13.78,0,0,1,46.23,64.7Zm6.23-2.92-.19-1.44-1.15.88A9.5,9.5,0,0,1,46.26,63a9.29,9.29,0,0,1,1.79-4.86L48.93,57l-1.44-.19a9.36,9.36,0,0,1-4.7-2.17,9.53,9.53,0,0,1,4.7-2.17l1.44-.19-.88-1.15a9.32,9.32,0,0,1-1.79-4.86,9.32,9.32,0,0,1,4.86,1.79l1.15.88.2-1.44a9.34,9.34,0,0,1,2.16-4.7,9.36,9.36,0,0,1,2.17,4.7l.2,1.43,1.15-.87A9.29,9.29,0,0,1,63,46.26a9.5,9.5,0,0,1-1.79,4.86l-.88,1.15,1.44.19a9.53,9.53,0,0,1,4.7,2.17,9.36,9.36,0,0,1-4.7,2.17L60.34,57l.88,1.16A9.47,9.47,0,0,1,63,63a9.47,9.47,0,0,1-4.86-1.79L57,60.34l-.19,1.44a9.36,9.36,0,0,1-2.17,4.7A9.44,9.44,0,0,1,52.46,61.78ZM67.7,53.46a11.49,11.49,0,0,0-4.42-2.4,11.61,11.61,0,0,0,1.42-4.83A13.78,13.78,0,0,1,70.62,48,14.12,14.12,0,0,1,67.7,53.46Zm0,2.35a14,14,0,0,1,2.92,5.45A13.74,13.74,0,0,1,64.7,63a11.61,11.61,0,0,0-1.42-4.83A11.49,11.49,0,0,0,67.7,55.81Zm-3-11.26A15.33,15.33,0,0,0,62.83,38a23.56,23.56,0,0,1,12.32-3.89,23.56,23.56,0,0,1-3.89,12.32A15.33,15.33,0,0,0,64.72,44.55Zm-1.68,0A11.73,11.73,0,0,0,58.21,46a11.42,11.42,0,0,0-2.4-4.42,13.92,13.92,0,0,1,5.45-2.92A13.74,13.74,0,0,1,63,44.56ZM58.21,63.27A11.44,11.44,0,0,0,63,64.7a13.78,13.78,0,0,1-1.78,5.92,14,14,0,0,1-5.45-2.92A11.46,11.46,0,0,0,58.21,63.27Zm6.51,1.45a15.25,15.25,0,0,0,6.53-1.89,23.48,23.48,0,0,1,3.9,12.32,23.65,23.65,0,0,1-12.32-3.89A15.37,15.37,0,0,0,64.72,64.72ZM68.9,54.63a15.28,15.28,0,0,0,3.28-6,23.5,23.5,0,0,1,11.47,6,23.44,23.44,0,0,1-11.47,6A15.39,15.39,0,0,0,68.9,54.63Zm1.56-38.21a32.68,32.68,0,0,1,4.73,16,25.53,25.53,0,0,0-13,4,25.2,25.2,0,0,0-6.36-12A33.09,33.09,0,0,1,70.46,16.42Zm-15.83,9.2a23.44,23.44,0,0,1,6,11.47,15.27,15.27,0,0,0-6,3.28,15.28,15.28,0,0,0-6-3.28A23.5,23.5,0,0,1,54.63,25.62ZM38.8,16.42a33.13,33.13,0,0,1,14.66,8,25.2,25.2,0,0,0-6.36,12,25.44,25.44,0,0,0-13-4A32.66,32.66,0,0,1,38.8,16.42ZM32.42,34.08a25.37,25.37,0,0,0,4,13,25.3,25.3,0,0,0-12,6.37,33.07,33.07,0,0,1-8-14.66A32.74,32.74,0,0,1,32.42,34.08Zm-16,36.39a33.07,33.07,0,0,1,8-14.66,25.2,25.2,0,0,0,12,6.36,25.34,25.34,0,0,0-4,13A32.74,32.74,0,0,1,16.42,70.47ZM38.8,92.85a32.67,32.67,0,0,1-4.72-16,25.28,25.28,0,0,0,13-4,25.38,25.38,0,0,0,6.37,12A33.17,33.17,0,0,1,38.8,92.85Zm9.88-20.67a15.28,15.28,0,0,0,6-3.28,15.42,15.42,0,0,0,5.95,3.28,23.38,23.38,0,0,1-5.95,11.47A23.5,23.5,0,0,1,48.68,72.18ZM70.47,92.85a33.07,33.07,0,0,1-14.66-8,25.27,25.27,0,0,0,6.36-12,25.35,25.35,0,0,0,13,4A32.67,32.67,0,0,1,70.47,92.85Zm6.38-17.66a25.35,25.35,0,0,0-4-13,25.27,25.27,0,0,0,12-6.36,33.19,33.19,0,0,1,8,14.65A32.65,32.65,0,0,1,76.85,75.19Z"/></g></g></svg>