<svg xmlns="http://www.w3.org/2000/svg" viewBox="0 0 109.27 109.27"><defs><style>.cls-1{fill:#c0318a;}</style></defs><g id="Capa_2" data-name="Capa 2"><g id="Capa_1-2" data-name="Capa 1"><path class="cls-1" d="M54.63,109.27a54.64,54.64,0,1,1,54.64-54.64A54.7,54.7,0,0,1,54.63,109.27ZM54.63.76a53.88,53.88,0,1,0,53.88,53.87A53.93,53.93,0,0,0,54.63.76Z"/><path class="cls-1" d="M54.63,3.76a50.88,50.88,0,1,0,50.88,50.87A50.87,50.87,0,0,0,54.63,3.76ZM89.1,51.63s0,0,0,.08A1,1,0,0,1,89,52L76.9,82.28l0,0h0v0a0,0,0,0,0,0,0,1.87,1.87,0,0,1-.2.29l0,0a1.21,1.21,0,0,1-.28.21l0,0h0l0,0-.08,0s0,0,0,0h0L76,83,42.64,89.1l-.22,0a1.33,1.33,0,0,1-.28,0h0l-.09,0-.2-.09h0l-.09-.06-.06,0s0,0-.06-.06l-.07-.06-.05-.06h0L20.25,61.38l-.05-.1h.08a.68.68,0,0,1-.05-.4h0a.86.86,0,0,1,0-.16h0v-.41h0s-.08-.07-.06-.11l12-30.3,0-.05a1.19,1.19,0,0,1,.08-.16l.07-.08.1-.12.09-.08.1-.07.11-.06a1.39,1.39,0,0,1,.19-.06s0,0,0,0l33.33-9v.11h0a1,1,0,0,1,1.28.71h0v-.47h0s0,0,0,0h0v0l21.21,30.3v0a1.12,1.12,0,0,1,.13.24l0,.08a1.05,1.05,0,0,1,0,.19s0,.06,0,.1Z"/><path class="cls-1" d="M67.66,20.48s0,0,0,0h0v0Z"/><path class="cls-1" d="M91,50.94a.19.19,0,0,1,0-.08,2,2,0,0,0-.14-.25v0L68.43,18.53V19h0a1.08,1.08,0,0,0-1.35-.76h0v-.12L31.75,27.7s0,0-.06,0l-.2.06-.11.07-.12.08-.09.08-.11.12-.06.09a.7.7,0,0,0-.09.17s0,0,0,.05L18.17,60.47s.07.08.07.12h0V61h0a1,1,0,0,0,0,.17h0a.75.75,0,0,0,0,.42H18.2l.05.1L40.68,90.62h0s0,0,0,0l.06.06.07.06.06.07.07,0,.09.06h0a.72.72,0,0,0,.2.09l.1,0h.05a1.36,1.36,0,0,0,.29,0,.93.93,0,0,0,.23,0l35.27-6.41.13,0h0s0,0,0,0l.09,0,0,0,0,0,0,0a1.29,1.29,0,0,0,.3-.22l0,0a1.21,1.21,0,0,0,.2-.3l0,0v0h0s0,0,0-.05L91,51.85a1.57,1.57,0,0,0,.08-.31.28.28,0,0,1,0-.09v-.2s0-.07,0-.1A1.6,1.6,0,0,0,91,50.94Zm-6.3-4.54L81.19,44l-4.73-9.46ZM77.6,42.69,45.11,31.86,66.77,21Zm-.15,2.71L52.07,65.14l-8.46-31ZM55,24,41.61,30.69,36.6,29ZM32.85,30.53l6.69,2.23L23.92,52.85ZM41.13,35l8.38,30.7L21.6,60.09Zm.25,52.29L22.45,62.93l27,5.41Zm2.49.83,8.06-18.8L73.42,82.72Zm32-6.93L53.61,67.25l25-19.46ZM79,74.82l2.3-27.57,6.89,4.59Z"/></g></g></svg>