<svg xmlns="http://www.w3.org/2000/svg" viewBox="0 0 109.27 109.27"><defs><style>.cls-1{fill:#46b8a9;}</style></defs><g id="Capa_2" data-name="Capa 2"><g id="Capa_1-2" data-name="Capa 1"><path class="cls-1" d="M54.63,109.27a54.64,54.64,0,1,1,54.64-54.64A54.7,54.7,0,0,1,54.63,109.27ZM54.63.76a53.88,53.88,0,1,0,53.88,53.87A53.93,53.93,0,0,0,54.63.76Z"/><path class="cls-1" d="M54.63,3.76a50.88,50.88,0,1,0,50.88,50.87A50.87,50.87,0,0,0,54.63,3.76ZM84.51,33.59a4.52,4.52,0,0,1,4.25,8,4.6,4.6,0,0,1-3.51.31,4.53,4.53,0,0,1-.74-8.28ZM59,18a4.52,4.52,0,1,1,3.23,5.5,1.53,1.53,0,0,1-.25-.06A4.52,4.52,0,0,1,59,18ZM19.76,32.42a4.51,4.51,0,1,1,7.64,4.81h0a4.5,4.5,0,0,1-5.19,1.89,4.68,4.68,0,0,1-1-.47A4.52,4.52,0,0,1,19.76,32.42Zm-5.8,16a4.51,4.51,0,1,1,3.85,5.08A4.44,4.44,0,0,1,14,48.44Zm4.19,20a4.52,4.52,0,1,1,2.62,0A4.41,4.41,0,0,1,18.15,68.45ZM29.51,81a4.48,4.48,0,0,1-4.27.83,4.41,4.41,0,0,1-2.07-1.4,4.5,4.5,0,1,1,6.34.57Zm.89-54.51a4.49,4.49,0,1,1,2.36,1.8A4.44,4.44,0,0,1,30.4,26.48ZM42.52,89a4.51,4.51,0,0,1-5.41,2.27,4.78,4.78,0,0,1-.64-.26,4.51,4.51,0,1,1,6.05-2Zm5-75A4.51,4.51,0,0,1,49,22.92h0a4.48,4.48,0,0,1-2.1-.16A4.52,4.52,0,0,1,47.52,14ZM52.91,95.3a4.77,4.77,0,0,1-1.16-.21,4.51,4.51,0,1,1,1.16.21Zm2.45-30.78A10.71,10.71,0,0,1,43.88,54.6a10.71,10.71,0,1,1,11.48,9.92ZM69.71,92.59a4.51,4.51,0,1,1,2.58-5.84A4.52,4.52,0,0,1,69.71,92.59Zm4.41-63.11a4.5,4.5,0,1,1,1.41.76A4.41,4.41,0,0,1,74.12,29.48Zm9.93,53.59s-.08.09-.12.12a4.48,4.48,0,0,1-4.61,1.13,4.5,4.5,0,0,1-1.88-7.4l.11-.11a4.51,4.51,0,0,1,6.5,6.26Zm9-14.42v0a4.51,4.51,0,0,1-5.62,2.79.35.35,0,0,1-.15-.07,4.51,4.51,0,0,1-2.73-5.76h0a4.51,4.51,0,0,1,8.48,3.07Zm-1.88-12a4.51,4.51,0,0,1-4.84-4.18,4.51,4.51,0,1,1,4.84,4.18Z"/></g></g></svg>