<svg xmlns="http://www.w3.org/2000/svg" viewBox="0 0 109.27 109.27"><defs><style>.cls-1{fill:#e2c42d;}</style></defs><g id="Capa_2" data-name="Capa 2"><g id="Capa_1-2" data-name="Capa 1"><path class="cls-1" d="M54.63,109.27a54.64,54.64,0,1,1,54.64-54.64A54.7,54.7,0,0,1,54.63,109.27ZM54.63.76a53.88,53.88,0,1,0,53.88,53.87A53.93,53.93,0,0,0,54.63.76Z"/><g id="Your_Icon" data-name="Your Icon"><path class="cls-1" d="M54.63,4A50.68,50.68,0,0,0,4,54.63q0,1.44.09,2.85H32.49l13.06-44,11.68,51.6,9.34-27,9.85,19.44h28.8c0-.94.08-1.89.08-2.85A50.67,50.67,0,0,0,54.63,4ZM67.89,57.37,55.7,92.6,44.56,43.35,38.13,65H5a50.68,50.68,0,0,0,99.19,0H71.77Z"/></g></g></g></svg>