<svg xmlns="http://www.w3.org/2000/svg" viewBox="0 0 109.27 109.27"><defs><style>.cls-1{fill:#3ba6de;}</style></defs><g id="Capa_2" data-name="Capa 2"><g id="Capa_1-2" data-name="Capa 1"><path class="cls-1" d="M54.63,109.27a54.64,54.64,0,1,1,54.64-54.64A54.7,54.7,0,0,1,54.63,109.27ZM54.63.76a53.88,53.88,0,1,0,53.88,53.87A53.93,53.93,0,0,0,54.63.76Z"/><path class="cls-1" d="M54.63,3.76a50.88,50.88,0,1,0,50.88,50.87A50.88,50.88,0,0,0,54.63,3.76ZM27.22,59a5.7,5.7,0,0,0-.52,2.9,21,21,0,0,1-6.31-14.75,19.23,19.23,0,0,1,5.77-13.72,19.68,19.68,0,0,1,22.66-3.68,19.22,19.22,0,0,1,3.22,2l.48.38,9.59,9.58a5.47,5.47,0,0,1-.37,7.67,6,6,0,0,1-4.17,1.78,5,5,0,0,1-3.5-1.41L40.26,35.91,39,37.16l4.77,4.77L28.32,57.4A5.51,5.51,0,0,0,27.22,59Zm5.43,6.62a4.25,4.25,0,0,1-4.2-4.21,3.82,3.82,0,0,1,1.11-2.73L45,43.17,50.84,49,35.38,64.46A3.89,3.89,0,0,1,32.65,65.58Zm49.84-3.65L74.3,70.11,57.6,86.68a3.86,3.86,0,0,1-2.73,1.11,4.24,4.24,0,0,1-4.2-4.12,3.85,3.85,0,0,1,1.11-2.81L68,64.61l-1.51-1.52L50.26,79.34a3.85,3.85,0,0,1-2.73,1.12,4.23,4.23,0,0,1-4.2-4.2,3.79,3.79,0,0,1,1.12-2.73L60.69,57.28,59,55.55,42.71,71.79A3.83,3.83,0,0,1,40,72.91a4.22,4.22,0,0,1-4.19-4.13A3.81,3.81,0,0,1,36.89,66L52.36,50.51l.47.47a6.63,6.63,0,0,0,4.74,1.93A7.83,7.83,0,0,0,63,50.62a7.23,7.23,0,0,0,.36-10.17l-7.53-7.53a19.67,19.67,0,0,1,27.29.47,19.27,19.27,0,0,1,5.77,13.72A20.92,20.92,0,0,1,82.49,61.93Z"/></g></g></svg>